<svg width="66" height="32" viewBox="0 0 66 32" fill="none" xmlns="http://www.w3.org/2000/svg">
<path d="M2.07027 4.21461H6.35613C6.94778 4.21461 7.42738 4.69464 7.42738 5.28629V6.66535L8.81429 3.54492C9.50403 1.99844 11.0379 1.00174 12.7317 1H39.8246C41.3824 0.999129 42.8186 1.84322 43.5751 3.20528L47.7293 10.6822L61.2753 11.5285C63.5307 11.6754 65.286 13.5458 65.2891 15.806V23.5018C65.2891 24.0935 64.8095 24.5731 64.2174 24.5731H61.989C61.4008 28.6684 57.6042 31.5111 53.5093 30.9229C50.2175 30.4503 47.632 27.8644 47.1594 24.5731H24.4862C23.8981 28.6684 20.1014 31.5111 16.0065 30.9229C12.7152 30.4503 10.1293 27.8644 9.65663 24.5731H6.35613C5.76448 24.5731 5.28488 24.0935 5.28488 23.5018V19.2155H2.07027C1.47862 19.2155 0.999023 18.7359 0.999023 18.1443V5.28629C0.998589 4.69421 1.47819 4.21461 2.07027 4.21461ZM54.574 28.8594C57.5331 28.8594 59.9315 26.4605 59.9315 23.5018C59.9315 20.5427 57.5331 18.1443 54.574 18.1443C51.6153 18.1443 49.2164 20.5427 49.2164 23.5018C49.2199 26.4592 51.6166 28.8559 54.574 28.8594ZM49.2164 18.2611L49.2252 18.2524C49.2906 18.1862 49.359 18.1238 49.4275 18.0606C49.5273 17.9664 49.6267 17.8722 49.7318 17.7833C49.8059 17.7201 49.8831 17.6612 49.9603 17.601C50.0671 17.5186 50.1743 17.438 50.2816 17.3608C50.3631 17.3041 50.4455 17.254 50.5301 17.196C50.6374 17.1241 50.7542 17.0547 50.8697 16.9893C50.9565 16.9388 51.0446 16.8917 51.1335 16.8446C51.2526 16.7835 51.3725 16.7256 51.4945 16.6711C51.5857 16.6292 51.6768 16.5882 51.7688 16.5507C51.8952 16.4993 52.0247 16.4544 52.1546 16.4095C52.2475 16.3772 52.3399 16.3441 52.4354 16.3162C52.5723 16.2756 52.7118 16.2425 52.8509 16.2093C52.9434 16.1875 53.0332 16.1631 53.1265 16.1448C53.283 16.1139 53.4426 16.0925 53.603 16.072C53.6824 16.0611 53.7608 16.0463 53.8411 16.0389C54.0813 16.0153 54.3263 16.0014 54.574 16.0014C54.8216 16.0014 55.0671 16.0153 55.3082 16.0389C55.3884 16.0463 55.4665 16.0611 55.5458 16.072C55.7067 16.0921 55.8676 16.1139 56.0228 16.1448C56.1161 16.1631 56.2059 16.1875 56.2984 16.2093C56.4374 16.2425 56.577 16.2756 56.7139 16.3162C56.8093 16.3441 56.9013 16.3772 56.9946 16.4095C57.1246 16.4544 57.2541 16.4993 57.3805 16.5507C57.4725 16.5882 57.5636 16.6292 57.6547 16.6711C57.7768 16.7256 57.8967 16.7779 58.0157 16.8446C58.1047 16.8917 58.1928 16.9388 58.2795 16.9893C58.3951 17.0547 58.5076 17.1241 58.6192 17.196C58.7038 17.2496 58.7862 17.3033 58.8677 17.3608C58.9749 17.438 59.0818 17.5186 59.189 17.601C59.2662 17.6612 59.3434 17.7201 59.4175 17.7833C59.5243 17.8722 59.622 17.9664 59.7218 18.0606C59.7903 18.1238 59.8587 18.1862 59.9241 18.2524C60.0314 18.3597 60.1234 18.4669 60.221 18.5738C60.2755 18.637 60.3283 18.6971 60.385 18.7612C60.4983 18.9008 60.6047 19.0455 60.7063 19.1903C60.7351 19.233 60.7686 19.2713 60.7974 19.3145C60.926 19.505 61.0455 19.7021 61.1562 19.9049C61.1885 19.9624 61.2142 20.0239 61.2443 20.0827C61.3206 20.2305 61.3956 20.3797 61.4584 20.5327C61.4928 20.6142 61.5216 20.6979 61.5552 20.7812C61.6075 20.9164 61.662 21.0515 61.7052 21.1906C61.7352 21.283 61.7597 21.3781 61.7854 21.4727C61.8229 21.6066 61.8595 21.7391 61.8926 21.8756C61.9153 21.9758 61.9323 22.077 61.9506 22.1795C61.9655 22.261 61.9859 22.3403 61.9977 22.4227H63.1461V15.8065C63.1483 14.6729 62.268 13.7342 61.1371 13.6631L49.2164 12.9228V18.2611ZM18.1429 3.14293H12.7317C11.8846 3.14293 11.1168 3.64215 10.7728 4.41604L8.00507 10.6438H18.1425V3.14293H18.1429ZM31.0009 3.14293H20.2858V10.6438H31.0009V3.14293ZM33.1438 22.4302H47.0735V12.7868H33.1438V22.4302ZM33.1438 10.6438H45.2519L41.6964 4.24557C41.3188 3.56585 40.6024 3.1438 39.8246 3.14293H33.1438V10.6438ZM22.7169 18.5794C22.7719 18.6422 22.8242 18.7024 22.8809 18.7669C22.9947 18.906 23.1006 19.0507 23.2026 19.1955C23.2314 19.2382 23.2646 19.277 23.2933 19.3197C23.422 19.5107 23.5419 19.7073 23.6526 19.9101C23.6849 19.9681 23.7101 20.0291 23.7402 20.088C23.8165 20.2358 23.8915 20.3849 23.9547 20.5379C23.9887 20.6195 24.018 20.7032 24.0511 20.7864C24.1034 20.9216 24.1584 21.0568 24.2011 21.1958C24.2312 21.2883 24.256 21.3833 24.2813 21.4779C24.3188 21.6118 24.3554 21.7443 24.3886 21.8808C24.4112 21.9811 24.4282 22.0822 24.4465 22.1847C24.4614 22.2662 24.4819 22.3456 24.4936 22.428H31.0009V12.7868H20.2858V16.7286C20.363 16.7652 20.4367 16.8058 20.513 16.8446C20.5893 16.883 20.69 16.9388 20.7768 16.9893C20.8923 17.0547 21.0048 17.1241 21.1164 17.196C21.201 17.2496 21.2834 17.3033 21.3649 17.3608C21.4722 17.438 21.579 17.5186 21.6862 17.601C21.7634 17.6612 21.8406 17.7201 21.9147 17.7833C22.0215 17.8722 22.1192 17.9664 22.219 18.0606C22.2875 18.1238 22.3559 18.1862 22.4213 18.2524C22.5229 18.3584 22.6193 18.4656 22.7169 18.5794ZM17.0712 28.8594C20.0303 28.8594 22.4287 26.4605 22.4287 23.5018C22.4287 20.5427 20.0303 18.1443 17.0712 18.1443C14.1121 18.1443 11.7137 20.5427 11.7137 23.5018C11.7172 26.4592 14.1138 28.8559 17.0712 28.8594ZM7.42781 18.1443V22.4302H9.6466C9.65837 22.3477 9.67887 22.2684 9.69369 22.1869C9.712 22.08 9.72901 21.9833 9.75168 21.8825C9.78176 21.7465 9.81795 21.614 9.85893 21.4797C9.88466 21.3855 9.90907 21.29 9.93916 21.198C9.98407 21.0585 10.0368 20.9238 10.0891 20.7886C10.1223 20.7049 10.1515 20.6216 10.1855 20.5401C10.2522 20.3871 10.3272 20.238 10.4 20.0902C10.4301 20.0313 10.4558 19.9703 10.4876 19.9123C10.5984 19.71 10.7183 19.5133 10.8469 19.3219C10.8757 19.2792 10.9088 19.2404 10.938 19.1977C11.0448 19.0507 11.1521 18.906 11.2594 18.7691C11.3117 18.7046 11.3666 18.6444 11.4233 18.5812C11.521 18.4743 11.6173 18.3597 11.7202 18.2598C11.7856 18.1936 11.8541 18.1312 11.9225 18.068C12.0224 17.9738 12.1218 17.8796 12.2268 17.7907C12.301 17.7275 12.3781 17.6686 12.4553 17.6085C12.5621 17.5261 12.6694 17.4454 12.7766 17.3687C12.8582 17.3115 12.9406 17.2614 13.0252 17.2034C13.1324 17.1319 13.2493 17.0621 13.3648 16.9968C13.4516 16.9462 13.5396 16.8991 13.6286 16.852C13.7476 16.791 13.8675 16.733 13.9896 16.6785C14.0807 16.6366 14.1718 16.5961 14.2638 16.5586C14.3903 16.5071 14.5197 16.4618 14.6497 16.4169C14.7425 16.385 14.835 16.3515 14.9305 16.3236C15.0674 16.283 15.2069 16.2499 15.346 16.2168C15.4384 16.1954 15.5282 16.1705 15.6215 16.1522C15.778 16.1213 15.9376 16.0999 16.0985 16.0794C16.1774 16.0685 16.2559 16.0537 16.3361 16.0463C16.5781 16.0153 16.8236 16.0014 17.0712 16.0014C17.3189 16.0014 17.5643 16.0153 17.8054 16.0389C17.8857 16.0463 17.9637 16.0611 18.043 16.072L18.1429 16.086V12.7868H7.42781V18.1443ZM3.14152 17.0726H5.28445V6.35754H3.14152V17.0726Z" fill="#2F80ED" stroke="#2F80ED" stroke-width="0.2"/>
<path d="M39.5723 16.0012C39.5723 15.4094 39.0926 14.9297 38.5008 14.9297H36.3574C35.7657 14.9297 35.286 15.4094 35.286 16.0012C35.286 16.5929 35.7657 17.0726 36.3574 17.0726H38.5008C39.0926 17.0726 39.5723 16.5929 39.5723 16.0012Z" fill="#2F80ED" stroke="#2F80ED" stroke-width="0.2"/>
<path d="M54.5745 20.2871C56.3498 20.2871 57.7891 21.7263 57.7891 23.5017C57.7891 25.2771 56.3498 26.7163 54.5745 26.7163C52.7991 26.7163 51.3598 25.2771 51.3598 23.5017C51.3598 21.7263 52.7991 20.2871 54.5745 20.2871ZM54.5745 24.573C55.1661 24.573 55.6461 24.0934 55.6461 23.5017C55.6461 22.9101 55.1661 22.43 54.5745 22.43C53.9828 22.43 53.5032 22.9101 53.5032 23.5017C53.5028 24.0934 53.9828 24.573 54.5745 24.573Z" fill="#2F80ED" stroke="#2F80ED" stroke-width="0.2"/>
<path d="M17.0705 20.2871C18.8459 20.2871 20.2852 21.7263 20.2852 23.5017C20.2852 25.2771 18.8459 26.7163 17.0705 26.7163C15.2952 26.7163 13.8559 25.2771 13.8559 23.5017C13.8559 21.7263 15.2952 20.2871 17.0705 20.2871ZM17.0705 24.573C17.6622 24.573 18.1422 24.0934 18.1422 23.5017C18.1422 22.9101 17.6622 22.43 17.0705 22.43C16.4789 22.43 15.9989 22.9101 15.9989 23.5017C15.9989 24.0934 16.4789 24.573 17.0705 24.573Z" fill="#2F80ED" stroke="#2F80ED" stroke-width="0.2"/>
</svg>
